<svg width="120" height="60" viewBox="0 0 120 60" fill="none" xmlns="http://www.w3.org/2000/svg">
<path d="M60 24C60 21.7909 61.7909 20 64 20H80V40H64C61.7909 40 60 38.2091 60 36V24Z" fill="black"/>
<path d="M100 20H116C118.209 20 120 21.7909 120 24V36C120 38.2091 118.209 40 116 40H100V20Z" fill="black"/>
<path d="M80 40H100V56C100 58.2091 98.2091 60 96 60H84C81.7909 60 80 58.2091 80 56V40Z" fill="black"/>
<path d="M80 4C80 1.79086 81.7909 0 84 0H96C98.2091 0 100 1.79086 100 4V20H80V4Z" fill="black"/>
<path d="M30 0C13.4315 0 0 13.4315 0 30V56C0 58.2091 1.79086 60 4 60H16C18.2091 60 20 58.2091 20 56V30C20 24.4772 24.4772 20 30 20H56C58.2091 20 60 18.2091 60 16V4C60 1.79086 58.2091 0 56 0H30Z" fill="black"/>
</svg>
