<svg width="194" height="24" viewBox="0 0 194 24" fill="none" xmlns="http://www.w3.org/2000/svg">
<g clip-path="url(#clip0)">
<path d="M7.0352 10.9469C6.96482 10.8547 6.87182 10.7822 6.76521 10.7365C6.6586 10.6908 6.54199 10.6734 6.42668 10.6861C6.31138 10.6987 6.20129 10.7409 6.10707 10.8085C6.01286 10.8762 5.93772 10.967 5.88894 11.0723L0.0752024 22.6961C0.0219618 22.8022 -0.00320649 22.9202 0.0020979 23.0388C0.0074023 23.1574 0.0430025 23.2727 0.105503 23.3736C0.168004 23.4746 0.255321 23.5578 0.359128 23.6154C0.462934 23.673 0.579767 23.7031 0.698486 23.7027H8.79401C8.92388 23.7061 9.05194 23.6717 9.16261 23.6037C9.27327 23.5356 9.36176 23.4369 9.41729 23.3194C11.1582 19.7015 10.1015 14.2209 7.0352 10.9469Z" fill="black"/>
<path d="M11.3015 0.358253C9.8474 2.58746 8.99856 5.15673 8.8384 7.81342C8.67824 10.4701 9.2123 13.1228 10.388 15.5105L14.3104 23.3194C14.3684 23.435 14.4574 23.5321 14.5675 23.5998C14.6776 23.6675 14.8045 23.7031 14.9337 23.7027H23.0292C23.147 23.7013 23.2625 23.6699 23.3649 23.6115C23.4672 23.5532 23.5531 23.4698 23.6143 23.3691C23.6756 23.2685 23.7102 23.1539 23.715 23.0362C23.7198 22.9185 23.6946 22.8015 23.6418 22.6962L12.4836 0.358253C12.4301 0.246842 12.3463 0.152804 12.2417 0.0869823C12.1371 0.0211609 12.0161 -0.0137634 11.8925 -0.0137634C11.769 -0.0137634 11.6479 0.0211609 11.5433 0.0869823C11.4388 0.152804 11.3549 0.246842 11.3015 0.358253Z" fill="black"/>
<path d="M106.259 9.69326C106.259 12.5589 107.595 14.8586 112.818 15.8652C115.934 16.5171 116.586 17.0222 116.586 18.061C116.586 19.0998 115.934 19.7231 113.721 19.7231C111.067 19.6752 108.467 18.9713 106.152 17.6742V22.3667C107.724 23.1368 109.802 24.0001 113.674 24.0001C119.137 24.0001 121.304 21.5679 121.304 17.9464L106.259 9.69326ZM121.304 17.9464C121.304 14.5327 119.495 12.9315 114.387 11.8318C111.568 11.2085 110.884 10.5852 110.884 9.68251C110.884 8.55416 111.894 8.08132 113.749 8.08132C116.006 8.08132 118.23 8.7655 120.34 9.71475V5.24072C118.318 4.31989 116.115 3.86336 113.893 3.9046C108.845 3.9046 106.234 6.10042 106.234 9.69326" fill="black"/>
<path d="M176.425 4.20184V23.7027H180.58V8.83348L182.332 12.7809L188.21 23.7027H193.433V4.20184H189.278V16.7893L187.705 13.1356L182.984 4.20184H176.425Z" fill="black"/>
<path d="M149.996 4.20184H145.454V23.7027H149.996V4.20184Z" fill="black"/>
<path d="M140.214 17.9464C140.214 14.5327 138.405 12.9315 133.297 11.8318C130.478 11.2085 129.793 10.5852 129.793 9.68251C129.793 8.55416 130.804 8.08132 132.659 8.08132C134.916 8.08132 137.14 8.7655 139.25 9.71475V5.24072C137.228 4.31989 135.024 3.86336 132.802 3.9046C127.755 3.9046 125.144 6.10042 125.144 9.69326C125.144 12.5589 126.48 14.8586 131.703 15.8652C134.819 16.5171 135.471 17.0222 135.471 18.061C135.471 19.0998 134.819 19.7231 132.605 19.7231C129.952 19.6752 127.352 18.9713 125.036 17.6742V22.3667C126.609 23.1368 128.687 24.0001 132.559 24.0001C138.022 24.0001 140.189 21.5679 140.189 17.9464" fill="black"/>
<path d="M70.9827 4.20184V23.7027H80.3176L81.7863 19.4902H75.5534V4.20184H70.9827Z" fill="black"/>
<path d="M52.5385 4.20184V8.41796H57.5857V23.7027H62.1564V8.41796H67.5582V4.20184H52.5385Z" fill="black"/>
<path d="M45.9116 4.20184H39.9224L33.1164 23.7027H38.3283L39.2812 20.418C41.6593 21.1183 44.189 21.1183 46.5671 20.418L47.5307 23.7027H52.7247L45.9116 4.20184ZM42.917 16.9039C42.0683 16.9051 41.2239 16.7845 40.4095 16.5457L42.917 8.0311L45.4244 16.5457C44.6101 16.7845 43.7656 16.9051 42.917 16.9039Z" fill="black"/>
<path d="M96.4084 4.20184H90.4191L83.6132 23.7027H88.8072L89.7779 20.418C92.1516 21.1155 94.6759 21.1155 97.0496 20.418L98.0132 23.7027H103.207L96.4084 4.20184ZM93.4138 16.9039C92.5651 16.9051 91.7207 16.7845 90.9063 16.5457L93.4138 8.0311L95.9212 16.5457C95.1068 16.7845 94.2624 16.9051 93.4138 16.9039Z" fill="black"/>
<path d="M166.359 4.20184H160.37L153.564 23.7027H158.758L159.729 20.418C162.103 21.1155 164.627 21.1155 167.001 20.418L167.964 23.7027H173.158L166.359 4.20184ZM163.365 16.9039C162.516 16.9051 161.672 16.7845 160.857 16.5457L163.365 8.0311L165.872 16.5457C165.058 16.7845 164.213 16.9051 163.365 16.9039Z" fill="black"/>
</g>
<defs>
<clipPath id="clip0">
<rect width="193.433" height="24" fill="white"/>
</clipPath>
</defs>
</svg>
