<svg width="48" height="35" viewBox="0 0 48 35" fill="none" xmlns="http://www.w3.org/2000/svg">
<path d="M43.8172 2.88521H44.1536C44.5682 2.88521 44.9079 2.73721 44.9079 2.34585C44.9079 2.0515 44.7073 1.77901 44.1806 1.77901C44.0158 1.77901 43.9037 1.77901 43.817 1.79191V2.88521H43.8172ZM43.8172 4.78661H43.2532V1.41513C43.5149 1.37495 43.7783 1.32 44.1926 1.32C44.6938 1.32 45.0063 1.4297 45.2067 1.59249C45.3818 1.7405 45.482 1.96719 45.482 2.29277C45.482 2.7243 45.2187 3.00575 44.8824 3.10088V3.12648C45.1558 3.18144 45.3307 3.45019 45.3938 3.95104C45.4686 4.47751 45.5313 4.67692 45.5823 4.78661H45.0063C44.9315 4.67692 44.8671 4.36798 44.8042 3.92542C44.7431 3.51783 44.5307 3.35693 44.1416 3.35693H43.817V4.78661H43.8172ZM44.3303 0.511886C43.0901 0.511886 42.0878 1.63079 42.0878 3.03322C42.0878 4.43566 43.0901 5.55455 44.3421 5.55455C45.5822 5.56912 46.5726 4.43566 46.5726 3.03322C46.5726 1.63079 45.5822 0.511886 44.3421 0.511886H44.3303ZM44.3421 0C45.8932 0 47.1334 1.34935 47.1334 3.02053C47.1334 4.71917 45.8932 6.06667 44.3303 6.06667C42.7656 6.06667 41.5 4.71917 41.5 3.02053C41.5 1.34935 42.7656 0 44.3303 0H44.3421Z" fill="black"/>
<path d="M25.0334 0H38.9001V34.6667L25.0334 0Z" fill="black"/>
<path d="M14.6333 0H0.333313V34.6667L14.6333 0Z" fill="black"/>
<path d="M13.3333 27.6273L19.6835 12.5667L28.9333 34.6666H22.8727L20.1057 27.6273H13.3333Z" fill="black"/>
</svg>
