<svg width="98" height="33" viewBox="0 0 98 33" fill="none" xmlns="http://www.w3.org/2000/svg">
<g clip-path="url(#clip0)">
<path d="M41.6007 17.1734C41.6007 21.7772 37.9991 25.1698 33.5791 25.1698C29.1591 25.1698 25.5574 21.7772 25.5574 17.1734C25.5574 12.5371 29.1591 9.17697 33.5791 9.17697C37.9991 9.17697 41.6007 12.5371 41.6007 17.1734ZM38.0892 17.1734C38.0892 14.2964 36.0018 12.3279 33.5791 12.3279C31.1563 12.3279 29.0689 14.2964 29.0689 17.1734C29.0689 20.0215 31.1563 22.0188 33.5791 22.0188C36.0018 22.0188 38.0892 20.0179 38.0892 17.1734Z" fill="black"/>
<path d="M58.9059 17.1734C58.9059 21.7772 55.3043 25.1698 50.8843 25.1698C46.4643 25.1698 42.8627 21.7772 42.8627 17.1734C42.8627 12.5407 46.4643 9.17697 50.8843 9.17697C55.3043 9.17697 58.9059 12.5371 58.9059 17.1734ZM55.3944 17.1734C55.3944 14.2964 53.307 12.3279 50.8843 12.3279C48.4616 12.3279 46.3742 14.2964 46.3742 17.1734C46.3742 20.0215 48.4616 22.0188 50.8843 22.0188C53.307 22.0188 55.3944 20.0179 55.3944 17.1734Z" fill="black"/>
<path d="M75.49 9.66007V24.0161C75.49 29.9215 72.0073 32.3334 67.8901 32.3334C64.0145 32.3334 61.6819 29.7412 60.8023 27.6213L63.8595 26.3487C64.4039 27.6501 65.7378 29.186 67.8865 29.186C70.5219 29.186 72.1551 27.56 72.1551 24.4992V23.3491H72.0325C71.2466 24.3189 69.7324 25.1661 67.8216 25.1661C63.8234 25.1661 60.1605 21.6835 60.1605 17.2022C60.1605 12.6885 63.8234 9.17697 67.8216 9.17697C69.7288 9.17697 71.243 10.0242 72.0325 10.9652H72.1551V9.66368H75.49V9.66007ZM72.4039 17.2022C72.4039 14.3865 70.5256 12.3279 68.1353 12.3279C65.7126 12.3279 63.6828 14.3865 63.6828 17.2022C63.6828 19.9891 65.7126 22.0188 68.1353 22.0188C70.5256 22.0188 72.4039 19.9891 72.4039 17.2022Z" fill="black"/>
<path d="M80.9879 1.24548V24.6795H77.5629V1.24548H80.9879Z" fill="black"/>
<path d="M94.3344 19.8052L97.06 21.6223C96.1803 22.9238 94.0604 25.1662 90.3975 25.1662C85.8549 25.1662 82.4624 21.6547 82.4624 17.1698C82.4624 12.4145 85.8838 9.17343 90.0045 9.17343C94.1542 9.17343 96.1839 12.4758 96.8473 14.2604L97.2114 15.1689L86.5219 19.5962C87.3403 21.2005 88.6129 22.0188 90.3975 22.0188C92.1857 22.0188 93.4259 21.1392 94.3344 19.8052ZM85.945 16.9283L93.0906 13.9612C92.6977 12.9625 91.5151 12.2667 90.1235 12.2667C88.3389 12.2667 85.8549 13.8422 85.945 16.9283Z" fill="black"/>
<path d="M12.5931 15.0932V11.7006H24.0252C24.137 12.2919 24.1947 12.9913 24.1947 13.7484C24.1947 16.2937 23.4989 19.4411 21.2564 21.6835C19.0753 23.9548 16.2884 25.1661 12.5967 25.1661C5.75395 25.1661 0 19.5925 0 12.7497C0 5.90702 5.75395 0.333344 12.5967 0.333344C16.3822 0.333344 19.0789 1.8187 21.105 3.7547L18.7111 6.14857C17.2582 4.7858 15.2898 3.72585 12.5931 3.72585C7.59621 3.72585 3.68816 7.75289 3.68816 12.7497C3.68816 17.7466 7.59621 21.7736 12.5931 21.7736C15.8342 21.7736 17.68 20.4721 18.8626 19.2896C19.8215 18.3307 20.4525 16.9607 20.7012 15.0895L12.5931 15.0932Z" fill="black"/>
</g>
<defs>
<clipPath id="clip0">
<rect width="97.3333" height="32" fill="white" transform="translate(0 0.333344)"/>
</clipPath>
</defs>
</svg>
