<svg width="74" height="48" viewBox="0 0 74 48" fill="none" xmlns="http://www.w3.org/2000/svg">
<path d="M22.2164 20.3599V32.1141H18.4566V17.3396L26.2189 17.3472C29.5159 17.3472 30.639 19.661 30.639 21.7626V32.1141H26.8859V21.782C26.8859 20.9016 26.428 20.3599 25.3234 20.3599H22.2164ZM47.783 20.1834C46.498 20.1834 45.5036 20.8408 45.088 21.7334C44.842 22.2692 44.7572 22.6799 44.7282 23.336H50.5126C50.4387 21.7334 49.7083 20.1834 47.783 20.1834ZM44.7282 25.8826C44.7282 27.7964 45.924 29.205 48.0583 29.205C49.7192 29.205 50.5444 28.7471 51.5046 27.7964L53.8271 30.003C52.3399 31.4639 50.7799 32.351 48.0306 32.351C44.4316 32.351 40.9869 30.398 40.9869 24.7059C40.9869 19.8425 43.9943 17.0892 47.9462 17.0892C51.9516 17.0892 54.266 20.3126 54.266 24.5348V25.8826H44.7282ZM37.8131 32.0957C34.75 32.0957 33.4504 29.9738 33.4504 27.878V13.3142H37.2044V17.3396H40.0344V20.3599H37.2044V27.6438C37.2044 28.5021 37.6117 28.9786 38.5072 28.9786H40.0344V32.0957H37.8131ZM15.1111 15.2978H11.3255V11.7191H15.1111V15.2978ZM15.1207 32.2695C12.2857 31.9984 11.3214 30.2872 11.3214 28.3125L11.3255 17.3396H15.1207V32.2695H15.1207ZM60.2409 31.9538C57.4116 31.6823 56.4518 29.9738 56.4518 28.0018V11.2098H60.2409V31.9538ZM73.4862 13.6366C70.0524 -3.02301 37.5565 -4.07765 16.6108 8.61193V10.0129C37.5353 -0.688552 67.2114 -0.625508 69.9149 14.7187C70.8197 19.7925 67.9466 25.0824 62.8158 28.123V32.1011C68.9912 29.8526 75.3251 22.5615 73.4862 13.6366ZM35.4116 42.7845C20.9558 44.1141 5.89178 42.0261 3.78397 30.7848C2.75226 25.2432 5.28902 19.3687 8.65434 15.7198V13.7685C2.59614 19.0553 -0.691792 25.7484 1.20105 33.6569C3.617 43.7981 16.5456 49.5453 36.2791 47.6365C44.0867 46.8785 54.3058 44.3801 61.4101 40.4997V34.9867C54.9638 38.8068 44.2961 41.9657 35.4116 42.7845Z" fill="black"/>
</svg>
